<?xml version="1.0" encoding="utf-8"?>
<!-- Generator: Adobe Illustrator 27.1.1, SVG Export Plug-In . SVG Version: 6.00 Build 0)  -->
<svg version="1.1" id="Capa_2_00000078766099560650283660000004873406221913206432_"
	 xmlns="http://www.w3.org/2000/svg" xmlns:xlink="http://www.w3.org/1999/xlink" x="0px" y="0px" viewBox="0 0 118.8 140"
	 style="enable-background:new 0 0 118.8 140;" xml:space="preserve">
<style type="text/css">
	.st0{fill:#ffffff;}
</style>
<g id="VECTOR">
	<g>
		<g>
			<path class="st0" d="M33,126.5c-10.8,0-19.5-8.8-19.5-19.6S22.2,87.3,33,87.3s19.5,8.8,19.5,19.6S43.8,126.5,33,126.5z M33,88.3
				c-10.2,0-18.5,8.3-18.5,18.6s8.3,18.6,18.5,18.6s18.5-8.3,18.5-18.6S43.2,88.3,33,88.3z"/>
		</g>
		<g>
			<path class="st0" d="M33,138.5c-17.4,0-31.5-14.2-31.5-31.6S15.6,75.3,33,75.3c8.8,0,17.2,3.7,23.1,10.2l4,0
				C67.8,85.8,74,92.2,74,100v13.9c0,8-6.5,14.5-14.4,14.5h-3.5C50.2,134.8,41.8,138.5,33,138.5z M33,76.3
				c-16.8,0-30.5,13.7-30.5,30.6s13.7,30.6,30.5,30.6c8.6,0,16.8-3.6,22.6-10l0.1-0.2h3.9c7.4,0,13.4-6,13.4-13.5V100
				c0-7.4-6-13.5-13.4-13.5l-3.9,0l-0.1-0.2C49.8,80,41.6,76.3,33,76.3z"/>
		</g>
		<g>
			<path class="st0" d="M77.8,52.7c-10.8,0-19.5-8.8-19.5-19.6s8.8-19.6,19.5-19.6c10.8,0,19.5,8.8,19.5,19.6S88.6,52.7,77.8,52.7z
				 M77.8,14.5c-10.2,0-18.5,8.3-18.5,18.6s8.3,18.6,18.5,18.6s18.5-8.3,18.5-18.6S88.1,14.5,77.8,14.5z"/>
		</g>
		<g>
			<path class="st0" d="M88.4,73.1c-0.7,0-1.3,0-2-0.1c-3.8-0.5-7.2-2.5-9.5-5.6l-2.1-2.8c-8.7-0.9-16.8-5.4-22-12.4
				C42.3,38.2,45,18.4,58.9,7.9c6.7-5.1,15-7.2,23.3-6.1C90.5,3,97.9,7.3,103,14.1c5.3,7,7.4,16,5.8,24.7l2.3,3l0,0
				c4.6,6.4,3.3,15.3-3,20l-11,8.4C94.5,72.1,91.5,73.1,88.4,73.1z M77.8,2.5c-6.6,0-13,2.1-18.3,6.2c-13.4,10.2-16.1,29.4-6,42.8
				c5.2,6.9,13,11.2,21.5,12l0.2,0l2.4,3.1c2.2,2.9,5.3,4.7,8.9,5.2c3.5,0.5,7.1-0.4,9.9-2.6l11-8.4c5.9-4.5,7.1-12.9,2.6-18.9
				l-0.2-0.2l0,0l-2.2-2.9l0-0.2c1.6-8.4-0.5-17.2-5.6-24.1c-4.9-6.5-12-10.7-20.1-11.9C80.6,2.6,79.2,2.5,77.8,2.5z"/>
		</g>
		<g>
			
				<rect x="73.5" y="105.8" transform="matrix(0.9954 -9.563802e-02 9.563802e-02 0.9954 -9.7995 8.1316)" class="st0" width="12.9" height="1"/>
		</g>
		<g>
			
				<rect x="92.9" y="100.4" transform="matrix(0.937 -0.3494 0.3494 0.937 -29.0654 40.5962)" class="st0" width="10.2" height="1"/>
		</g>
		<g>
			
				<rect x="107.8" y="87.3" transform="matrix(0.5102 -0.8601 0.8601 0.5102 -19.826 140.8676)" class="st0" width="11.8" height="1"/>
		</g>
		<g>
			<rect x="110.5" y="65" transform="matrix(0.8289 -0.5594 0.5594 0.8289 -20.6879 74.247)" class="st0" width="1" height="11.8"/>
		</g>
		<g>
			<rect x="92.1" y="55" transform="matrix(0.7774 -0.629 0.629 0.7774 -13.3212 73.3856)" class="st0" width="9.9" height="1"/>
		</g>
		<g>
			<rect x="63.1" y="102.7" class="st0" width="1" height="8.5"/>
		</g>
	</g>
</g>
</svg>
