<?xml version="1.0" encoding="UTF-8"?><svg id="Capa_2" xmlns="http://www.w3.org/2000/svg" viewBox="0 0 186.92 193.17"><defs><style>.cls-1{fill:#ffffff;}</style></defs><g id="Layer_2"><g><path class="cls-1" d="m66.67,77.18c9.17,6.14,18.65,12.48,23.06,24.06.59,1.54,2.08,2.57,3.73,2.57s3.14-1.03,3.73-2.57c4.41-11.58,13.89-17.92,23.06-24.06,12.07-8.08,25.75-17.24,25.75-38.68,0-17.16-13.96-31.11-31.11-31.11-8.12,0-15.64,3.02-21.43,8.55-5.78-5.53-13.31-8.55-21.43-8.55-17.16,0-31.11,13.96-31.11,31.11,0,21.45,13.68,30.61,25.75,38.69Zm5.36-65.55c7.66,0,14.71,3.12,19.85,8.77.81.89,2.34.89,3.15,0,5.14-5.66,12.19-8.77,19.85-8.77,14.81,0,26.86,12.05,26.86,26.86,0,19.18-11.59,26.94-23.87,35.15-9.56,6.4-19.44,13.01-24.42,25.45-4.98-12.43-14.86-19.05-24.42-25.45-12.27-8.21-23.87-15.97-23.87-35.15,0-14.81,12.05-26.86,26.86-26.86Z"/><path class="cls-1" d="m163.11,143.65l-49.54-.02c.03-.39.06-.79.06-1.19,0-8.65-7.03-15.69-15.68-15.69l-58.96-.03h-.01c-14.21,0-22.04,10.04-28.85,20.32-2.48,3.75-9.34,14.49-9.34,14.49-.63.99-.33,2.3.66,2.93.35.22.75.33,1.14.33.7,0,1.39-.35,1.8-.99,0,0,6.82-10.69,9.29-14.42,6.42-9.7,13.19-18.42,25.3-18.42h.01l58.96.03c6.3,0,11.43,5.13,11.43,11.44,0,6.3-5.13,11.43-11.43,11.43h-38.26s0-.01,0-.01c-1.17,0-2.12.95-2.13,2.12,0,1.17.95,2.13,2.12,2.13h38.25s0,.01,0,.01c4.19,0,8.12-1.63,11.09-4.59,1.63-1.63,2.84-3.55,3.61-5.65l50.46.02c5.1,0,9.89,1.99,13.5,5.6,3.16,3.16,5.07,7.24,5.5,11.64l-124.17,15.45c-.49.04-12.18,1.11-17.45,9.3-.64.99-.35,2.3.64,2.94.36.23.75.34,1.15.34.7,0,1.38-.34,1.79-.98,4.13-6.42,14.14-7.36,14.32-7.38l126.2-15.71c1.06-.13,1.86-1.04,1.86-2.11,0-6.23-2.42-12.1-6.83-16.51-4.41-4.41-10.27-6.84-16.5-6.84Z"/><path class="cls-1" d="m29.06,64.07c.46,0,.91-.15,1.3-.45.93-.72,1.1-2.05.38-2.98-9.16-11.81-9.16-31.03,0-42.84.72-.93.55-2.26-.38-2.98-.93-.72-2.26-.55-2.98.38-10.27,13.25-10.27,34.8,0,48.05.42.54,1.05.82,1.68.82Z"/><path class="cls-1" d="m14,78.44c.46,0,.91-.15,1.3-.45.93-.72,1.1-2.05.38-2.98C.37,55.28.37,23.16,15.67,3.43c.72-.93.55-2.26-.38-2.98-.93-.72-2.26-.55-2.98.38-16.42,21.17-16.42,55.62,0,76.79.42.54,1.05.82,1.68.82Z"/><path class="cls-1" d="m156.56,63.62c.39.3.85.45,1.3.45.63,0,1.26-.28,1.68-.82,10.27-13.25,10.27-34.8,0-48.05-.72-.93-2.05-1.1-2.98-.38-.93.72-1.1,2.05-.38,2.98,9.16,11.81,9.16,31.03,0,42.84-.72.93-.55,2.26.38,2.98Z"/><path class="cls-1" d="m171.63,77.99c.39.3.85.45,1.3.45.63,0,1.26-.28,1.68-.82,16.42-21.17,16.42-55.62,0-76.79-.72-.93-2.06-1.1-2.98-.38-.93.72-1.1,2.05-.38,2.98,15.31,19.74,15.31,51.85,0,71.58-.72.93-.55,2.26.38,2.98Z"/></g></g></svg>