<?xml version="1.0" encoding="UTF-8"?><svg id="Capa_2" xmlns="http://www.w3.org/2000/svg" viewBox="0 0 166.61 141.5"><defs><style>.cls-1{fill:#ffffff;}.cls-2{fill:none;stroke:#ffffff;stroke-linecap:round;stroke-miterlimit:10;stroke-width:3px;}</style></defs><g id="Layer_2"><g><path class="cls-1" d="m113.66,124.7c-4.02,0-8.52-1.21-13.12-6.96-3.14-3.92-10.57-8.29-21.21-7.71-7.13.38-18.02-3.94-19.74-7.86-1.85-4.21-.49-10.9.71-16.8.73-3.58,1.55-7.64,1-8.95-7.33-17.27-15.78-26.3-23.23-34.27C28.57,32,20.36,23.23,17.11,1.58c-.11-.75.4-1.45,1.15-1.56.75-.12,1.45.4,1.56,1.15,3.13,20.81,11.06,29.29,20.24,39.11,7.61,8.14,16.23,17.36,23.75,35.07.89,2.1.13,5.84-.83,10.57-1.06,5.23-2.38,11.74-.89,15.15.97,2.2,10.11,6.61,17.08,6.22,11.66-.64,19.79,4.09,23.51,8.73,5.42,6.78,10.33,6.18,15.07,5.6,1.13-.14,2.31-.28,3.44-.31,6.52-.19,9.01-.87,10.27-2.82,1.13-1.76,1.43-3.87,1.11-4.21h0s-.03-.02-.12-.03c-1.24-.15-2.54-.19-3.91-.22-4.19-.11-8.94-.23-11.9-4.29-9.15-12.56-15.94-18.87-20.89-23.47-4.47-4.15-7.7-7.16-10.11-12.21C64.04,28.69,56.27,2.55,56.2,2.29c-.21-.73.2-1.49.93-1.7.73-.21,1.49.2,1.7.93.07.26,7.78,26.19,29.29,71.36,2.18,4.58,5.09,7.29,9.5,11.38,5.04,4.68,11.93,11.09,21.24,23.87,2.16,2.97,5.85,3.06,9.75,3.16,1.38.04,2.81.07,4.18.24,1.05.13,1.86.71,2.29,1.63.95,2.03-.27,5.19-1.31,6.82-2.06,3.21-5.83,3.89-12.5,4.08-1.01.03-2.07.16-3.19.3-1.39.17-2.87.35-4.42.35Z"/><path class="cls-2" d="m1.5,136.91s16.63,5.21,37.43,2.1c23.01-3.43,32.68-9.48,64.47-9.48s61.7,10.24,61.7,10.24"/></g></g></svg>