<?xml version="1.0" encoding="UTF-8"?><svg id="Capa_2" xmlns="http://www.w3.org/2000/svg" viewBox="0 0 155.82 143.25"><defs><style>.cls-1{fill:#ffffff;}</style></defs><g id="Layer_2"><g><path class="cls-1" d="m54.06,6.66h-5.13V1.53c0-.85-.69-1.53-1.53-1.53s-1.53.69-1.53,1.53v5.13h-5.13c-.85,0-1.53.69-1.53,1.53s.69,1.53,1.53,1.53h5.13v5.13c0,.85.69,1.53,1.53,1.53s1.53-.69,1.53-1.53v-5.13h5.13c.85,0,1.53-.69,1.53-1.53s-.69-1.53-1.53-1.53Z"/><path class="cls-1" d="m70.95,33.24c-1.78,0-3.23,1.45-3.23,3.23s1.45,3.23,3.23,3.23,3.23-1.45,3.23-3.23-1.45-3.23-3.23-3.23Z"/><path class="cls-1" d="m45.73,136.78c-1.78,0-3.23,1.45-3.23,3.23s1.45,3.23,3.23,3.23,3.23-1.45,3.23-3.23-1.45-3.23-3.23-3.23Z"/><path class="cls-1" d="m17.86,117.48c-1.78,0-3.23,1.45-3.23,3.23s1.45,3.23,3.23,3.23,3.23-1.45,3.23-3.23-1.45-3.23-3.23-3.23Z"/><path class="cls-1" d="m97.78,8.83c1.78,0,3.23-1.45,3.23-3.23s-1.45-3.23-3.23-3.23-3.23,1.45-3.23,3.23,1.45,3.23,3.23,3.23Z"/><path class="cls-1" d="m155.64,41.13c-.44-5.74-.96-14.81-.96-25.45,0-7.13-1.62-11.32-4.95-12.79-5.04-2.23-11.39,3.28-12.25,4.06-.69.57-11.84,9.72-21.69,19.84-.91.94-1.16,3.43-1.64,16.7-.03.76-.06,1.55-.09,2.36-1.54-9.2-2.34-11.13-4-11.53-.78-.19-1.57.13-2.11.87l-1.28,1.76c-3.08,4.22-6.9,9.47-10.76,14.87-.59.83-.51,1.9.26,8.18.47,3.8,1.13,9.15,1.37,14.29-.34-2.07-.68-3.83-.97-5.15-2.13-9.97-3.42-10.37-4.04-10.57-.68-.21-1.43.04-1.84.64-3.7,5.33-6.52,9.6-8.36,12.68-7.96,13.27-7.61,16.66-6.13,22.48.2.8.41,1.63.6,2.56,1.3,6.34,5.92,24.3,6.9,28.09-5.84,8.55-9.72,13.93-9.85,14.1-.5.68-.34,1.64.34,2.14.27.2.59.29.9.29.47,0,.94-.22,1.24-.63.12-.17,4.02-5.58,9.89-14.16l32.04-4.31c8.09-1.09,13.9-6.13,17.27-15,1.91-5.02,4.32-11.33,6.77-17.7.27-.69.03-1.48-.58-1.9-.58-.4-1.45-1.01-13.16,3.22-.37.13-.79.29-1.25.46,4.56-2.55,9.32-4.59,12.6-5.99,3.97-1.7,4.8-2.05,5.15-2.97,2.43-6.32,4.69-12.23,6.3-16.46.59-1.54-.19-2.48-.55-2.82-1.48-1.37-5.17-.88-9.03.2.13-.08.27-.16.4-.24,10-6.12,12.74-8.02,13.02-9.72.61-3.77.76-7.94.42-12.39Zm-3.41,11.71c-.98,1.27-7.37,5.19-11.63,7.8-8.49,5.2-10.86,6.79-11.37,8.14-.22.58-.07,1.24.39,1.67.46.42,1.13.53,1.69.26,8.47-3.99,15.01-5.4,17.03-5.22-1.56,4.1-3.69,9.66-5.97,15.6-.61.33-2.14.99-3.64,1.63-6.47,2.77-18.51,7.93-24.31,14.86-.51.61-.47,1.52.1,2.07.57.56,1.47.59,2.08.06,2.41-2.09,16.37-7.19,21.96-8.7-2.13,5.55-4.19,10.94-5.86,15.34-2.94,7.73-7.92,12.13-14.82,13.05l-29.32,3.94c13.54-20,35.04-53.39,46.97-80.31.34-.77,0-1.68-.78-2.02-.77-.34-1.68,0-2.02.78-11.84,26.74-33.24,59.95-46.71,79.85-1.63-6.34-5.12-20.09-6.19-25.33-.2-1-.43-1.9-.63-2.7-1.2-4.76-1.87-7.39,5.79-20.16,1.57-2.62,3.87-6.14,6.85-10.48,1.45,4.36,3.95,15.24,3.95,26.13,0,.69.47,1.3,1.13,1.48.67.18,1.38-.11,1.72-.71,3.56-6.16,1.77-20.66.59-30.26-.33-2.66-.67-5.4-.63-6.28,3.78-5.3,7.54-10.45,10.56-14.6l.26-.36c.88,2.97,1.92,9.69,2.65,14.44.33,2.11.65,4.19.96,6.08.1.58.52,1.05,1.08,1.22.56.17,1.17,0,1.57-.44.84-.92,1.07-3.33,1.53-16.07.21-5.64.49-13.31.94-14.84,9.96-10.2,21.19-19.37,21.3-19.46.02-.02.04-.04.07-.06,1.44-1.31,6.18-4.78,8.98-3.55,2.02.89,3.13,4.44,3.13,9.99,0,8.5.33,17.38.97,25.69.31,4.13.19,7.99-.36,11.47Z"/><path class="cls-1" d="m53.78,67.33c-.81-.26-1.67.18-1.93.98l-10.69,32.71c-1.93-3.46-4.09-7.74-6.27-12.84l10.61-32.45c.26-.8-.18-1.67-.98-1.93-.81-.27-1.67.18-1.93.98l-9.49,29.03c-1.7-4.32-3.38-9.15-4.96-14.49l10.32-28.07c.29-.79-.11-1.67-.91-1.97-.79-.29-1.67.11-1.97.91l-8.86,24.09c-1.33-5.02-2.56-10.45-3.62-16.3l6.68-17.52c.3-.79-.09-1.68-.89-1.98-.79-.3-1.67.1-1.98.89l-4.81,12.62c-1.46-9.59-2.45-20.2-2.71-31.86-.02-.83-.7-1.5-1.53-1.5-.01,0-.02,0-.04,0-.85.02-1.52.72-1.5,1.57.28,12.44,1.38,23.67,2.98,33.7-2.44-2.34-6.06-6.22-9.9-11.73-.48-.69-1.44-.86-2.13-.38-.69.48-.86,1.44-.38,2.13,6.13,8.78,11.65,13.54,13.24,14.81,1.16,6.43,2.52,12.32,3.97,17.67-4.32-2.39-12.48-7.69-18.62-16.41-.49-.69-1.44-.86-2.13-.37-.69.49-.86,1.44-.37,2.13,8.17,11.61,19.45,17.37,22.26,18.68,1.68,5.71,3.45,10.73,5.17,15.05-5.12-1.71-15.61-6.34-25.91-17.75-.57-.63-1.53-.68-2.16-.11-.63.57-.68,1.54-.11,2.16,12.85,14.23,25.78,18.37,29.68,19.34,2.39,5.6,4.74,10.22,6.83,13.91-6.34-.68-22.35-3.73-36.14-17.36-.6-.59-1.57-.59-2.17.01-.59.6-.59,1.57.01,2.17,16.59,16.41,35.84,18.22,40.19,18.42,3.19,5.22,5.43,7.83,5.59,8.02.3.35.73.53,1.16.53.36,0,.71-.12,1-.37.64-.55.71-1.52.16-2.16-.08-.09-2.23-2.64-5.33-7.75l11.54-35.3c.26-.8-.18-1.67-.98-1.93Z"/></g></g></svg>