<?xml version="1.0" encoding="UTF-8"?><svg id="Capa_2" xmlns="http://www.w3.org/2000/svg" viewBox="0 0 154.91 152.79"><defs><style>.cls-1{fill:#ffffff;}</style></defs><g id="Layer_2"><g><path class="cls-1" d="m33.63,87.23c-.09-.34-.3-.63-.58-.84C15.81,74.06,2.65,56.03,3.07,45.34c.13-3.27,1.48-5.63,4.12-7.22C25.42,27.14,41.41,15.61,41.56,15.49c.69-.5.84-1.45.34-2.14-.49-.68-1.45-.84-2.14-.34-.16.11-16.04,11.57-34.16,22.48C2.12,37.59.18,40.96.01,45.22c-.46,11.72,12.75,30.28,30.8,43.35,6.38,23.45,10.84,62.47,10.88,62.87.09.78.75,1.36,1.52,1.36.06,0,.12,0,.17-.01.84-.1,1.44-.85,1.35-1.69-.05-.4-4.6-40.24-11.11-63.86Z"/><path class="cls-1" d="m154.9,45.22c-.17-4.26-2.1-7.62-5.6-9.73-18.12-10.91-34-22.36-34.16-22.48-.69-.5-1.64-.34-2.14.34-.5.69-.34,1.64.34,2.14.16.12,16.14,11.64,34.38,22.62,2.64,1.59,3.99,3.95,4.12,7.22.42,10.69-12.74,28.73-29.97,41.06-.29.2-.49.5-.58.84-6.52,23.62-11.07,63.46-11.11,63.86-.1.84.51,1.6,1.35,1.69.06,0,.12.01.17.01.77,0,1.43-.58,1.52-1.36.05-.39,4.51-39.41,10.88-62.87,18.05-13.07,31.27-31.63,30.8-43.35Z"/><path class="cls-1" d="m129.38,48.19c.28-.32.41-.74.37-1.17-.05-.42-.26-.81-.6-1.06-8.71-6.53-19.64-15.21-21.89-17-.46-16.05-13.64-28.96-29.8-28.96s-29.34,12.91-29.8,28.96c-2.25,1.79-13.19,10.47-21.89,17-.34.25-.56.64-.6,1.06-.05.42.09.85.37,1.17,7.48,8.63,15.23,13.07,23.02,13.21.12,0,.24,0,.36,0,7.24,0,12.3-3.77,14.2-5.45,4.26,2.35,9.15,3.69,14.35,3.69s10.09-1.34,14.35-3.69c1.9,1.69,6.96,5.45,14.2,5.45.12,0,.24,0,.36,0,7.79-.13,15.53-4.58,23.02-13.21Zm-80.83,10.14c-6.5-.13-13.1-3.8-19.61-10.92,7.01-5.29,15.05-11.63,18.85-14.64.88,8.87,5.65,16.6,12.59,21.47-2.02,1.59-6.22,4.23-11.82,4.1Zm2.15-28.51c0-14.75,12-26.76,26.76-26.76s26.76,12,26.76,26.76-12,26.76-26.76,26.76-26.76-12-26.76-26.76Zm55.66,28.51c-.12,0-.23,0-.34,0-5.43,0-9.5-2.55-11.47-4.1,6.93-4.87,11.71-12.6,12.58-21.46,3.8,3.01,11.84,9.35,18.85,14.64-6.52,7.12-13.11,10.79-19.61,10.92Z"/><path class="cls-1" d="m77.46,85.84c5.48,0,9.94-3.43,9.94-7.66s-4.46-7.66-9.94-7.66-9.94,3.43-9.94,7.66,4.46,7.66,9.94,7.66Zm0-12.25c3.73,0,6.88,2.1,6.88,4.59s-3.15,4.59-6.88,4.59-6.88-2.1-6.88-4.59,3.15-4.59,6.88-4.59Z"/><path class="cls-1" d="m77.46,117.88c6,0,10.88-3.74,10.88-8.34s-4.88-8.34-10.88-8.34-10.88,3.74-10.88,8.34,4.88,8.34,10.88,8.34Zm0-13.61c4.23,0,7.81,2.42,7.81,5.27s-3.58,5.27-7.81,5.27-7.81-2.42-7.81-5.27,3.58-5.27,7.81-5.27Z"/><path class="cls-1" d="m77.46,131.89c-7.05,0-12.79,4.37-12.79,9.73s5.74,9.73,12.79,9.73,12.79-4.36,12.79-9.73-5.74-9.73-12.79-9.73Zm0,16.4c-5.36,0-9.73-2.99-9.73-6.67s4.36-6.67,9.73-6.67,9.73,2.99,9.73,6.67-4.36,6.67-9.73,6.67Z"/></g></g></svg>